<svg width="906" height="755" viewBox="0 0 906 755" fill="none" xmlns="http://www.w3.org/2000/svg">
<circle cx="433.5" cy="282.5" r="472.5" fill="#CDFF64" fill-opacity="0.5"/>
<path d="M257.91 80.26C257.91 78.64 257.49 77.14 256.65 75.76C255.81 74.38 254.64 73.21 253.14 72.25C251.7 71.23 249.99 70.45 248.01 69.91C246.09 69.31 244.02 69.01 241.8 69.01C239.7 69.01 237.72 69.28 235.86 69.82C234.06 70.36 232.47 71.17 231.09 72.25C229.77 73.33 228.72 74.68 227.94 76.3C227.16 77.86 226.77 79.69 226.77 81.79C226.77 84.67 227.43 86.95 228.75 88.63C230.07 90.31 231.72 91.66 233.7 92.68C235.68 93.7 237.81 94.54 240.09 95.2C242.43 95.8 244.59 96.49 246.57 97.27C248.55 97.99 250.2 98.92 251.52 100.06C252.84 101.2 253.5 102.76 253.5 104.74C253.5 105.58 253.35 106.45 253.05 107.35C252.81 108.25 252.33 109.09 251.61 109.87C250.89 110.59 249.9 111.22 248.64 111.76C247.38 112.24 245.79 112.48 243.87 112.48C241.47 112.48 239.43 112.12 237.75 111.4C236.13 110.62 234.78 109.72 233.7 108.7C232.68 107.62 231.93 106.54 231.45 105.46C231.03 104.38 230.82 103.48 230.82 102.76H224.97C224.97 104.44 225.36 106.09 226.14 107.71C226.92 109.27 228.09 110.68 229.65 111.94C231.27 113.2 233.22 114.22 235.5 115C237.84 115.72 240.54 116.08 243.6 116.08C249.12 116.08 253.26 114.88 256.02 112.48C258.84 110.02 260.25 106.81 260.25 102.85C260.25 99.97 259.56 97.66 258.18 95.92C256.86 94.18 255.18 92.8 253.14 91.78C251.1 90.7 248.88 89.83 246.48 89.17C244.14 88.51 241.95 87.82 239.91 87.1C237.87 86.38 236.16 85.51 234.78 84.49C233.46 83.47 232.8 82.03 232.8 80.17C232.8 79.39 232.95 78.58 233.25 77.74C233.55 76.84 234.06 76.03 234.78 75.31C235.5 74.53 236.46 73.9 237.66 73.42C238.86 72.88 240.36 72.61 242.16 72.61C243.96 72.61 245.52 72.88 246.84 73.42C248.16 73.9 249.27 74.53 250.17 75.31C251.07 76.03 251.73 76.84 252.15 77.74C252.57 78.64 252.78 79.48 252.78 80.26H257.91ZM289.002 69.01C293.382 69.01 296.772 69.64 299.172 70.9C301.572 72.1 303.312 73.69 304.392 75.67C305.532 77.65 306.192 79.93 306.372 82.51C306.552 85.09 306.642 87.73 306.642 90.43V115H299.352V110.59C297.612 112.27 295.392 113.62 292.692 114.64C289.992 115.6 287.292 116.08 284.592 116.08C282.012 116.08 279.732 115.63 277.752 114.73C275.772 113.83 274.122 112.66 272.802 111.22C271.482 109.78 270.492 108.16 269.832 106.36C269.172 104.56 268.842 102.73 268.842 100.87C268.842 98.95 269.202 97.03 269.922 95.11C270.642 93.19 271.722 91.48 273.162 89.98C274.602 88.42 276.372 87.16 278.472 86.2C280.572 85.24 282.972 84.76 285.672 84.76C288.372 84.76 290.922 85.3 293.322 86.38C295.782 87.4 297.792 88.87 299.352 90.79V86.92C299.352 82 298.602 78.34 297.102 75.94C295.662 73.54 292.992 72.34 289.092 72.34C287.412 72.34 285.942 72.55 284.682 72.97C283.422 73.39 282.282 73.99 281.262 74.77C280.302 75.49 279.402 76.42 278.562 77.56C277.722 78.64 276.882 79.87 276.042 81.25L271.362 76.57C272.202 75.67 273.072 74.77 273.972 73.87C274.932 72.97 276.072 72.16 277.392 71.44C278.772 70.72 280.392 70.15 282.252 69.73C284.112 69.25 286.362 69.01 289.002 69.01ZM299.352 97.18C299.052 96.46 298.602 95.62 298.002 94.66C297.462 93.7 296.742 92.77 295.842 91.87C294.942 90.97 293.862 90.22 292.602 89.62C291.342 88.96 289.842 88.63 288.102 88.63C286.362 88.63 284.772 88.99 283.332 89.71C281.892 90.37 280.662 91.27 279.642 92.41C278.682 93.49 277.932 94.78 277.392 96.28C276.852 97.78 276.582 99.34 276.582 100.96C276.582 102.88 276.912 104.56 277.572 106C278.292 107.38 279.192 108.58 280.272 109.6C281.352 110.56 282.552 111.28 283.872 111.76C285.192 112.24 286.452 112.48 287.652 112.48C288.792 112.48 289.932 112.27 291.072 111.85C292.272 111.43 293.382 110.86 294.402 110.14C295.482 109.36 296.442 108.46 297.282 107.44C298.122 106.42 298.812 105.31 299.352 104.11V97.18ZM330.496 52H322.846V115H330.496V52ZM346.71 70V99.25C346.71 100.33 346.8 101.83 346.98 103.75C347.22 105.61 347.85 107.47 348.87 109.33C349.89 111.13 351.48 112.72 353.64 114.1C355.86 115.42 358.95 116.08 362.91 116.08C364.65 116.14 366.54 115.78 368.58 115C370.68 114.28 372.78 112.87 374.88 110.77L376.32 109.33H376.68V115H384.33V70H376.68V97.9C376.68 100.24 376.35 102.25 375.69 103.93C375.03 105.61 374.16 107.02 373.08 108.16C372 109.24 370.74 110.05 369.3 110.59C367.86 111.13 366.36 111.4 364.8 111.4C362.28 111.4 360.3 110.92 358.86 109.96C357.48 108.94 356.43 107.77 355.71 106.45C355.05 105.13 354.66 103.84 354.54 102.58C354.42 101.26 354.36 100.3 354.36 99.7V70H346.71ZM394.505 73.6V70H402.335V56.14H409.985V70H420.875V73.6H409.985V103.48C409.985 104.2 410.015 105.04 410.075 106C410.135 106.9 410.315 107.77 410.615 108.61C410.915 109.39 411.365 110.05 411.965 110.59C412.625 111.13 413.525 111.4 414.665 111.4C416.105 111.4 417.305 110.86 418.265 109.78C419.225 108.7 420.005 107.53 420.605 106.27L424.835 110.59C421.895 113.53 418.565 115 414.845 115C413.285 115 411.755 114.73 410.255 114.19C408.755 113.65 407.405 112.84 406.205 111.76C405.065 110.62 404.135 109.18 403.415 107.44C402.695 105.7 402.335 103.66 402.335 101.32V73.6H394.505ZM472.715 94.48V92.59C472.715 88.57 472.145 85.09 471.005 82.15C469.865 79.21 468.305 76.78 466.325 74.86C464.405 72.94 462.155 71.5 459.575 70.54C456.995 69.58 454.265 69.1 451.385 69.1C448.325 69.1 445.505 69.64 442.925 70.72C440.345 71.74 438.095 73.27 436.175 75.31C434.255 77.29 432.755 79.72 431.675 82.6C430.595 85.42 430.055 88.63 430.055 92.23C430.055 95.23 430.505 98.17 431.405 101.05C432.365 103.87 433.775 106.42 435.635 108.7C437.555 110.92 439.955 112.72 442.835 114.1C445.775 115.42 449.225 116.08 453.185 116.08C457.025 116.08 460.565 115.42 463.805 114.1C467.045 112.72 469.865 110.77 472.265 108.25L469.385 105.37C468.125 106.45 466.925 107.44 465.785 108.34C464.705 109.24 463.595 109.99 462.455 110.59C461.315 111.19 460.115 111.67 458.855 112.03C457.655 112.33 456.305 112.48 454.805 112.48C453.125 112.48 451.325 112.24 449.405 111.76C447.545 111.22 445.805 110.29 444.185 108.97C442.565 107.65 441.215 105.82 440.135 103.48C439.055 101.14 438.515 98.14 438.515 94.48H472.715ZM438.515 90.88C438.515 88.48 438.755 86.17 439.235 83.95C439.775 81.67 440.555 79.66 441.575 77.92C442.655 76.18 444.005 74.8 445.625 73.78C447.245 72.7 449.165 72.16 451.385 72.16C455.645 72.16 458.945 73.84 461.285 77.2C463.685 80.5 464.885 85.06 464.885 90.88H438.515Z" fill="black"/>
</svg>
