<svg width="276" height="72" viewBox="0 0 276 72" fill="none" xmlns="http://www.w3.org/2000/svg">
<path d="M36.9 31.4C36.9 29.6 36.4333 27.9333 35.5 26.4C34.5667 24.8667 33.2667 23.5667 31.6 22.5C30 21.3667 28.1 20.5 25.9 19.9C23.7667 19.2333 21.4667 18.9 19 18.9C16.6667 18.9 14.4667 19.2 12.4 19.8C10.4 20.4 8.63333 21.3 7.1 22.5C5.63333 23.7 4.46667 25.2 3.6 27C2.73333 28.7333 2.3 30.7667 2.3 33.1C2.3 36.3 3.03333 38.8333 4.5 40.7C5.96667 42.5667 7.8 44.0667 10 45.2C12.2 46.3333 14.5667 47.2667 17.1 48C19.7 48.6667 22.1 49.4333 24.3 50.3C26.5 51.1 28.3333 52.1333 29.8 53.4C31.2667 54.6667 32 56.4 32 58.6C32 59.5333 31.8333 60.5 31.5 61.5C31.2333 62.5 30.7 63.4333 29.9 64.3C29.1 65.1 28 65.8 26.6 66.4C25.2 66.9333 23.4333 67.2 21.3 67.2C18.6333 67.2 16.3667 66.8 14.5 66C12.7 65.1333 11.2 64.1333 10 63C8.86667 61.8 8.03333 60.6 7.5 59.4C7.03333 58.2 6.8 57.2 6.8 56.4H0.3C0.3 58.2667 0.733333 60.1 1.6 61.9C2.46667 63.6333 3.76667 65.2 5.5 66.6C7.3 68 9.46667 69.1333 12 70C14.6 70.8 17.6 71.2 21 71.2C27.1333 71.2 31.7333 69.8667 34.8 67.2C37.9333 64.4667 39.5 60.9 39.5 56.5C39.5 53.3 38.7333 50.7333 37.2 48.8C35.7333 46.8667 33.8667 45.3333 31.6 44.2C29.3333 43 26.8667 42.0333 24.2 41.3C21.6 40.5667 19.1667 39.8 16.9 39C14.6333 38.2 12.7333 37.2333 11.2 36.1C9.73333 34.9667 9 33.3667 9 31.3C9 30.4333 9.16667 29.5333 9.5 28.6C9.83333 27.6 10.4 26.7 11.2 25.9C12 25.0333 13.0667 24.3333 14.4 23.8C15.7333 23.2 17.4 22.9 19.4 22.9C21.4 22.9 23.1333 23.2 24.6 23.8C26.0667 24.3333 27.3 25.0333 28.3 25.9C29.3 26.7 30.0333 27.6 30.5 28.6C30.9667 29.6 31.2 30.5333 31.2 31.4H36.9ZM71.4469 18.9C76.3135 18.9 80.0802 19.6 82.7469 21C85.4135 22.3333 87.3469 24.1 88.5469 26.3C89.8135 28.5 90.5469 31.0333 90.7469 33.9C90.9469 36.7667 91.0469 39.7 91.0469 42.7V70H82.9469V65.1C81.0135 66.9667 78.5469 68.4667 75.5469 69.6C72.5469 70.6667 69.5469 71.2 66.5469 71.2C63.6802 71.2 61.1469 70.7 58.9469 69.7C56.7469 68.7 54.9135 67.4 53.4469 65.8C51.9802 64.2 50.8802 62.4 50.1469 60.4C49.4135 58.4 49.0469 56.3667 49.0469 54.3C49.0469 52.1667 49.4469 50.0333 50.2469 47.9C51.0469 45.7667 52.2469 43.8667 53.8469 42.2C55.4469 40.4667 57.4135 39.0667 59.7469 38C62.0802 36.9333 64.7469 36.4 67.7469 36.4C70.7469 36.4 73.5802 37 76.2469 38.2C78.9802 39.3333 81.2135 40.9667 82.9469 43.1V38.8C82.9469 33.3333 82.1135 29.2667 80.4469 26.6C78.8469 23.9333 75.8802 22.6 71.5469 22.6C69.6802 22.6 68.0469 22.8333 66.6469 23.3C65.2469 23.7667 63.9802 24.4333 62.8469 25.3C61.7802 26.1 60.7802 27.1333 59.8469 28.4C58.9135 29.6 57.9802 30.9667 57.0469 32.5L51.8469 27.3C52.7802 26.3 53.7469 25.3 54.7469 24.3C55.8135 23.3 57.0802 22.4 58.5469 21.6C60.0802 20.8 61.8802 20.1667 63.9469 19.7C66.0135 19.1667 68.5135 18.9 71.4469 18.9ZM82.9469 50.2C82.6135 49.4 82.1135 48.4667 81.4469 47.4C80.8469 46.3333 80.0469 45.3 79.0469 44.3C78.0469 43.3 76.8469 42.4667 75.4469 41.8C74.0469 41.0667 72.3802 40.7 70.4469 40.7C68.5135 40.7 66.7469 41.1 65.1469 41.9C63.5469 42.6333 62.1802 43.6333 61.0469 44.9C59.9802 46.1 59.1469 47.5333 58.5469 49.2C57.9469 50.8667 57.6469 52.6 57.6469 54.4C57.6469 56.5333 58.0135 58.4 58.7469 60C59.5469 61.5333 60.5469 62.8667 61.7469 64C62.9469 65.0667 64.2802 65.8667 65.7469 66.4C67.2135 66.9333 68.6135 67.2 69.9469 67.2C71.2135 67.2 72.4802 66.9667 73.7469 66.5C75.0802 66.0333 76.3135 65.4 77.4469 64.6C78.6469 63.7333 79.7135 62.7333 80.6469 61.6C81.5802 60.4667 82.3469 59.2333 82.9469 57.9V50.2ZM117.551 -4.76837e-06H109.051V70H117.551V-4.76837e-06ZM135.566 20V52.5C135.566 53.7 135.666 55.3667 135.866 57.5C136.133 59.5667 136.833 61.6333 137.966 63.7C139.1 65.7 140.866 67.4667 143.266 69C145.733 70.4667 149.166 71.2 153.566 71.2C155.5 71.2667 157.6 70.8667 159.866 70C162.2 69.2 164.533 67.6333 166.866 65.3L168.466 63.7H168.866V70H177.366V20H168.866V51C168.866 53.6 168.5 55.8333 167.766 57.7C167.033 59.5667 166.066 61.1333 164.866 62.4C163.666 63.6 162.266 64.5 160.666 65.1C159.066 65.7 157.4 66 155.666 66C152.866 66 150.666 65.4667 149.066 64.4C147.533 63.2667 146.366 61.9667 145.566 60.5C144.833 59.0333 144.4 57.6 144.266 56.2C144.133 54.7333 144.066 53.6667 144.066 53V20H135.566ZM188.672 24V20H197.372V4.6H205.872V20H217.972V24H205.872V57.2C205.872 58 205.905 58.9333 205.972 60C206.039 61 206.239 61.9667 206.572 62.9C206.905 63.7667 207.405 64.5 208.072 65.1C208.805 65.7 209.805 66 211.072 66C212.672 66 214.005 65.4 215.072 64.2C216.139 63 217.005 61.7 217.672 60.3L222.372 65.1C219.105 68.3667 215.405 70 211.272 70C209.539 70 207.839 69.7 206.172 69.1C204.505 68.5 203.005 67.6 201.672 66.4C200.405 65.1333 199.372 63.5333 198.572 61.6C197.772 59.6667 197.372 57.4 197.372 54.8V24H188.672ZM275.572 47.2V45.1C275.572 40.6333 274.939 36.7667 273.672 33.5C272.405 30.2333 270.672 27.5333 268.472 25.4C266.339 23.2667 263.839 21.6667 260.972 20.6C258.105 19.5333 255.072 19 251.872 19C248.472 19 245.339 19.6 242.472 20.8C239.605 21.9333 237.105 23.6333 234.972 25.9C232.839 28.1 231.172 30.8 229.972 34C228.772 37.1333 228.172 40.7 228.172 44.7C228.172 48.0333 228.672 51.3 229.672 54.5C230.739 57.6333 232.305 60.4667 234.372 63C236.505 65.4667 239.172 67.4667 242.372 69C245.639 70.4667 249.472 71.2 253.872 71.2C258.139 71.2 262.072 70.4667 265.672 69C269.272 67.4667 272.405 65.3 275.072 62.5L271.872 59.3C270.472 60.5 269.139 61.6 267.872 62.6C266.672 63.6 265.439 64.4333 264.172 65.1C262.905 65.7667 261.572 66.3 260.172 66.7C258.839 67.0333 257.339 67.2 255.672 67.2C253.805 67.2 251.805 66.9333 249.672 66.4C247.605 65.8 245.672 64.7667 243.872 63.3C242.072 61.8333 240.572 59.8 239.372 57.2C238.172 54.6 237.572 51.2667 237.572 47.2H275.572ZM237.572 43.2C237.572 40.5333 237.839 37.9667 238.372 35.5C238.972 32.9667 239.839 30.7333 240.972 28.8C242.172 26.8667 243.672 25.3333 245.472 24.2C247.272 23 249.405 22.4 251.872 22.4C256.605 22.4 260.272 24.2667 262.872 28C265.539 31.6667 266.872 36.7333 266.872 43.2H237.572Z" fill="black"/>
</svg>
