<svg width="249" height="65" viewBox="0 0 249 65" fill="none" xmlns="http://www.w3.org/2000/svg">
<path d="M33.91 28.26C33.91 26.64 33.49 25.14 32.65 23.76C31.81 22.38 30.64 21.21 29.14 20.25C27.7 19.23 25.99 18.45 24.01 17.91C22.09 17.31 20.02 17.01 17.8 17.01C15.7 17.01 13.72 17.28 11.86 17.82C10.06 18.36 8.47 19.17 7.09 20.25C5.77 21.33 4.72 22.68 3.94 24.3C3.16 25.86 2.77 27.69 2.77 29.79C2.77 32.67 3.43 34.95 4.75 36.63C6.07 38.31 7.72 39.66 9.7 40.68C11.68 41.7 13.81 42.54 16.09 43.2C18.43 43.8 20.59 44.49 22.57 45.27C24.55 45.99 26.2 46.92 27.52 48.06C28.84 49.2 29.5 50.76 29.5 52.74C29.5 53.58 29.35 54.45 29.05 55.35C28.81 56.25 28.33 57.09 27.61 57.87C26.89 58.59 25.9 59.22 24.64 59.76C23.38 60.24 21.79 60.48 19.87 60.48C17.47 60.48 15.43 60.12 13.75 59.4C12.13 58.62 10.78 57.72 9.7 56.7C8.68 55.62 7.93 54.54 7.45 53.46C7.03 52.38 6.82 51.48 6.82 50.76H0.97C0.97 52.44 1.36 54.09 2.14 55.71C2.92 57.27 4.09 58.68 5.65 59.94C7.27 61.2 9.22 62.22 11.5 63C13.84 63.72 16.54 64.08 19.6 64.08C25.12 64.08 29.26 62.88 32.02 60.48C34.84 58.02 36.25 54.81 36.25 50.85C36.25 47.97 35.56 45.66 34.18 43.92C32.86 42.18 31.18 40.8 29.14 39.78C27.1 38.7 24.88 37.83 22.48 37.17C20.14 36.51 17.95 35.82 15.91 35.1C13.87 34.38 12.16 33.51 10.78 32.49C9.46 31.47 8.8 30.03 8.8 28.17C8.8 27.39 8.95 26.58 9.25 25.74C9.55 24.84 10.06 24.03 10.78 23.31C11.5 22.53 12.46 21.9 13.66 21.42C14.86 20.88 16.36 20.61 18.16 20.61C19.96 20.61 21.52 20.88 22.84 21.42C24.16 21.9 25.27 22.53 26.17 23.31C27.07 24.03 27.73 24.84 28.15 25.74C28.57 26.64 28.78 27.48 28.78 28.26H33.91ZM65.0022 17.01C69.3822 17.01 72.7722 17.64 75.1722 18.9C77.5722 20.1 79.3122 21.69 80.3922 23.67C81.5322 25.65 82.1922 27.93 82.3722 30.51C82.5522 33.09 82.6422 35.73 82.6422 38.43V63H75.3522V58.59C73.6122 60.27 71.3922 61.62 68.6922 62.64C65.9922 63.6 63.2922 64.08 60.5922 64.08C58.0122 64.08 55.7322 63.63 53.7522 62.73C51.7722 61.83 50.1222 60.66 48.8022 59.22C47.4822 57.78 46.4922 56.16 45.8322 54.36C45.1722 52.56 44.8422 50.73 44.8422 48.87C44.8422 46.95 45.2022 45.03 45.9222 43.11C46.6422 41.19 47.7222 39.48 49.1622 37.98C50.6022 36.42 52.3722 35.16 54.4722 34.2C56.5722 33.24 58.9722 32.76 61.6722 32.76C64.3722 32.76 66.9222 33.3 69.3222 34.38C71.7822 35.4 73.7922 36.87 75.3522 38.79V34.92C75.3522 30 74.6022 26.34 73.1022 23.94C71.6622 21.54 68.9922 20.34 65.0922 20.34C63.4122 20.34 61.9422 20.55 60.6822 20.97C59.4222 21.39 58.2822 21.99 57.2622 22.77C56.3022 23.49 55.4022 24.42 54.5622 25.56C53.7222 26.64 52.8822 27.87 52.0422 29.25L47.3622 24.57C48.2022 23.67 49.0722 22.77 49.9722 21.87C50.9322 20.97 52.0722 20.16 53.3922 19.44C54.7722 18.72 56.3922 18.15 58.2522 17.73C60.1122 17.25 62.3622 17.01 65.0022 17.01ZM75.3522 45.18C75.0522 44.46 74.6022 43.62 74.0022 42.66C73.4622 41.7 72.7422 40.77 71.8422 39.87C70.9422 38.97 69.8622 38.22 68.6022 37.62C67.3422 36.96 65.8422 36.63 64.1022 36.63C62.3622 36.63 60.7722 36.99 59.3322 37.71C57.8922 38.37 56.6622 39.27 55.6422 40.41C54.6822 41.49 53.9322 42.78 53.3922 44.28C52.8522 45.78 52.5822 47.34 52.5822 48.96C52.5822 50.88 52.9122 52.56 53.5722 54C54.2922 55.38 55.1922 56.58 56.2722 57.6C57.3522 58.56 58.5522 59.28 59.8722 59.76C61.1922 60.24 62.4522 60.48 63.6522 60.48C64.7922 60.48 65.9322 60.27 67.0722 59.85C68.2722 59.43 69.3822 58.86 70.4022 58.14C71.4822 57.36 72.4422 56.46 73.2822 55.44C74.1222 54.42 74.8122 53.31 75.3522 52.11V45.18ZM106.496 -4.29153e-06H98.8457V63H106.496V-4.29153e-06ZM122.71 18V47.25C122.71 48.33 122.8 49.83 122.98 51.75C123.22 53.61 123.85 55.47 124.87 57.33C125.89 59.13 127.48 60.72 129.64 62.1C131.86 63.42 134.95 64.08 138.91 64.08C140.65 64.14 142.54 63.78 144.58 63C146.68 62.28 148.78 60.87 150.88 58.77L152.32 57.33H152.68V63H160.33V18H152.68V45.9C152.68 48.24 152.35 50.25 151.69 51.93C151.03 53.61 150.16 55.02 149.08 56.16C148 57.24 146.74 58.05 145.3 58.59C143.86 59.13 142.36 59.4 140.8 59.4C138.28 59.4 136.3 58.92 134.86 57.96C133.48 56.94 132.43 55.77 131.71 54.45C131.05 53.13 130.66 51.84 130.54 50.58C130.42 49.26 130.36 48.3 130.36 47.7V18H122.71ZM170.505 21.6V18H178.335V4.14H185.985V18H196.875V21.6H185.985V51.48C185.985 52.2 186.015 53.04 186.075 54C186.135 54.9 186.315 55.77 186.615 56.61C186.915 57.39 187.365 58.05 187.965 58.59C188.625 59.13 189.525 59.4 190.665 59.4C192.105 59.4 193.305 58.86 194.265 57.78C195.225 56.7 196.005 55.53 196.605 54.27L200.835 58.59C197.895 61.53 194.565 63 190.845 63C189.285 63 187.755 62.73 186.255 62.19C184.755 61.65 183.405 60.84 182.205 59.76C181.065 58.62 180.135 57.18 179.415 55.44C178.695 53.7 178.335 51.66 178.335 49.32V21.6H170.505ZM248.715 42.48V40.59C248.715 36.57 248.145 33.09 247.005 30.15C245.865 27.21 244.305 24.78 242.325 22.86C240.405 20.94 238.155 19.5 235.575 18.54C232.995 17.58 230.265 17.1 227.385 17.1C224.325 17.1 221.505 17.64 218.925 18.72C216.345 19.74 214.095 21.27 212.175 23.31C210.255 25.29 208.755 27.72 207.675 30.6C206.595 33.42 206.055 36.63 206.055 40.23C206.055 43.23 206.505 46.17 207.405 49.05C208.365 51.87 209.775 54.42 211.635 56.7C213.555 58.92 215.955 60.72 218.835 62.1C221.775 63.42 225.225 64.08 229.185 64.08C233.025 64.08 236.565 63.42 239.805 62.1C243.045 60.72 245.865 58.77 248.265 56.25L245.385 53.37C244.125 54.45 242.925 55.44 241.785 56.34C240.705 57.24 239.595 57.99 238.455 58.59C237.315 59.19 236.115 59.67 234.855 60.03C233.655 60.33 232.305 60.48 230.805 60.48C229.125 60.48 227.325 60.24 225.405 59.76C223.545 59.22 221.805 58.29 220.185 56.97C218.565 55.65 217.215 53.82 216.135 51.48C215.055 49.14 214.515 46.14 214.515 42.48H248.715ZM214.515 38.88C214.515 36.48 214.755 34.17 215.235 31.95C215.775 29.67 216.555 27.66 217.575 25.92C218.655 24.18 220.005 22.8 221.625 21.78C223.245 20.7 225.165 20.16 227.385 20.16C231.645 20.16 234.945 21.84 237.285 25.2C239.685 28.5 240.885 33.06 240.885 38.88H214.515Z" fill="black"/>
</svg>
